Hullawrerr chinas! The delectable duo are here once again for tae entertain ye, with classic singalongs such as "Sweet Violets", "My Love she was a Herry", and the ever popular "La-di-da-di-da". Yes folks, join wee Francie and our main man big Josie fur a donner rooni dance halls - The Locamo, Dennistoun Palais, The Plaza... and as for the dance protocol, spiritualism, marital problems, whatever, our boys will advise on all of the above and more in their own inimitable style. Filmed live in their old stomping ground of Glasgow this timeless comedy classic is a wee treasure, so it is.

Format                           : MPEG-4
Format profile                   : Base Media / Version 2
Codec ID                         : mp42
File size                        : 900 MiB
Duration                         : 55mn 45s
Overall bit rate                 : 2 256 Kbps
Encoded date                     : UTC 2010-05-13 06:22:47
Tagged date                      : UTC 2010-05-13 10:03:57
Writing application              : HandBrake 0.9.3 2008112300

Video
ID                               : 1
Format                           : AVC
Format/Info                      : Advanced Video Codec
Format profile                   : Main@L4.0
Format settings, CABAC           : Yes
Format settings, ReFrames        : 3 frames
Codec ID                         : avc1
Codec ID/Info                    : Advanced Video Coding
Duration                         : 55mn 45s
Bit rate mode                    : Variable
Bit rate                         : 2 092 Kbps
Width                            : 698 pixels
Height                           : 574 pixels
Display aspect ratio             : 1.298
Frame rate mode                  : Variable
Frame rate                       : 25.000 fps
Minimum frame rate               : 12.500 fps
Maximum frame rate               : 25.000 fps
Resolution                       : 8 bits
Colorimetry                      : 4:2:0
Scan type                        : Progressive
Bits/(Pixel*Frame)               : 0.209
Stream size                      : 834 MiB (93%)
Writing library                  : x264 core 65

Language                         : English
Encoded date                     : UTC 2010-05-13 06:22:47
Tagged date                      : UTC 2010-05-13 10:03:57
Color primaries                  : BT.601-6 525, BT.1358 525, BT.1700 NTSC, SMPTE 170M
Transfer characteristics         : BT.709-5, BT.1361
Matrix coefficients              : BT.601-6 525, BT.1358 525, BT.1700 NTSC, SMPTE 170M

Audio
ID                               : 2
Format                           : AAC
Format/Info                      : Advanced Audio Codec
Format version                   : Version 4
Format profile                   : LC
Format settings, SBR             : No
Codec ID                         : 40
Duration                         : 55mn 45s
Bit rate mode                    : Variable
Bit rate                         : 160 Kbps
Maximum bit rate                 : 189 Kbps
Channel(s)                       : 2 channels
Channel positions                : L R
Sampling rate                    : 48.0 KHz
Stream size                      : 63.8 MiB (7%)
Language                         : English
Encoded date                     : UTC 2010-05-13 06:22:47
Tagged date                      : UTC 2010-05-13 10:03:47

